<svg xmlns="http://www.w3.org/2000/svg" viewBox="0 0 512 512">
  <rect width="512" height="512" rx="112" fill="#0f766e"/>
  <path fill="#ffffff" d="M166 92h180c25 0 46 21 46 46v236c0 25-21 46-46 46H166c-25 0-46-21-46-46V138c0-25 21-46 46-46Zm0 38c-4 0-8 4-8 8v236c0 4 4 8 8 8h180c4 0 8-4 8-8V138c0-4-4-8-8-8H166Z"/>
  <path fill="#fef3c7" d="M194 174h124c11 0 20 9 20 20s-9 20-20 20H194c-11 0-20-9-20-20s9-20 20-20Zm0 76h124c11 0 20 9 20 20s-9 20-20 20H194c-11 0-20-9-20-20s9-20 20-20Z"/>
  <circle cx="256" cy="336" r="24" fill="#fef3c7"/>
</svg>
